<?xml version="1.0" encoding="utf-8"?>
<!-- Generator: Adobe Illustrator 22.0.1, SVG Export Plug-In . SVG Version: 6.00 Build 0)  -->
<svg version="1.1" id="light" xmlns="http://www.w3.org/2000/svg" xmlns:xlink="http://www.w3.org/1999/xlink" x="0px" y="0px"
	 viewBox="0 0 512 512" style="enable-background:new 0 0 512 512;" xml:space="preserve">
<style type="text/css">
	.st0{fill:#7DC6BE;}
</style>
<g>
	<path class="st0" d="M234.7,512C105.3,512,0,406.7,0,277.3S105.3,42.7,234.7,42.7c45,0,88.8,12.8,126.6,37.1
		c4.9,3.2,6.4,9.8,3.2,14.7c-3.2,4.9-9.8,6.4-14.7,3.2C315.3,75.6,275.6,64,234.7,64C117,64,21.3,159.7,21.3,277.3
		S117,490.7,234.7,490.7S448,395,448,277.3c0-7-0.3-14-1-20.8c-0.6-5.9,3.7-11.1,9.6-11.6c6-0.5,11.1,3.7,11.6,9.6
		c0.7,7.5,1.1,15.2,1.1,22.9C469.3,406.7,364.1,512,234.7,512L234.7,512z"/>
</g>
<g>
	<path class="st0" d="M266.7,325.3c-2.7,0-5.5-1-7.6-3.1l-96-96c-4.2-4.2-4.2-10.9,0-15.1c4.2-4.2,10.9-4.2,15.1,0l88.4,88.4
		L493.8,72.4c4.2-4.2,10.9-4.2,15.1,0c4.2,4.2,4.2,10.9,0,15.1L274.2,322.2C272.1,324.3,269.4,325.3,266.7,325.3L266.7,325.3z"/>
</g>
</svg>
