<?xml version="1.0" encoding="utf-8"?>
<!-- Generator: Adobe Illustrator 22.0.1, SVG Export Plug-In . SVG Version: 6.00 Build 0)  -->
<svg version="1.1" id="Слой_1" xmlns="http://www.w3.org/2000/svg" xmlns:xlink="http://www.w3.org/1999/xlink" x="0px" y="0px"
	 viewBox="0 0 480 480" style="enable-background:new 0 0 480 480;" xml:space="preserve">
<style type="text/css">
	.st0{fill:#7DC6BE;}
</style>
<path class="st0" d="M472,144h-8V56c0-4.4-3.6-8-8-8H320V8c0-4.4-3.6-8-8-8H168c-4.4,0-8,3.6-8,8v40H24c-4.4,0-8,3.6-8,8v88H8
	c-4.4,0-8,3.6-8,8v32c0,4.4,3.6,8,8,8h8v280c0,4.4,3.6,8,8,8h432c4.4,0,8-3.6,8-8V192h8c4.4,0,8-3.6,8-8v-32
	C480,147.6,476.4,144,472,144z M320,64h128v80H320V64z M176,16h128v128H176V16z M32,64h128v80H32V64z M392,464H288v-64h104V464z
	 M392,384H288v-80h104V384z M392,288H288v-40h104V288z M448,464h-40V240c0-4.4-3.6-8-8-8H280c-4.4,0-8,3.6-8,8v224H32V192h416V464z
	 M464,176H16v-16h448V176z"/>
<path class="st0" d="M80,408h144c4.4,0,8-3.6,8-8v-40c0-4.4-3.6-8-8-8h-8V240c0-4.4-3.6-8-8-8H96c-4.4,0-8,3.6-8,8v112h-8
	c-4.4,0-8,3.6-8,8v40C72,404.4,75.6,408,80,408z M104,248h96v104h-96V248z M88,368h128v24H88V368z"/>
<path class="st0" d="M368,352c4.4,0,8-3.6,8-8v-8c0-4.4-3.6-8-8-8s-8,3.6-8,8v8C360,348.4,363.6,352,368,352z"/>
<path class="st0" d="M280,56h-16V40c0-4.4-3.6-8-8-8h-32c-4.4,0-8,3.6-8,8v16h-16c-4.4,0-8,3.6-8,8v32c0,4.4,3.6,8,8,8h16v16
	c0,4.4,3.6,8,8,8h32c4.4,0,8-3.6,8-8v-16h16c4.4,0,8-3.6,8-8V64C288,59.6,284.4,56,280,56z M272,88h-16c-4.4,0-8,3.6-8,8v16h-16V96
	c0-4.4-3.6-8-8-8h-16V72h16c4.4,0,8-3.6,8-8V48h16v16c0,4.4,3.6,8,8,8h16V88z"/>
<path class="st0" d="M133.7,301.7l24-24c3-3.1,3-8.1-0.1-11.2s-8.1-3.1-11.2-0.1l-24,24c-2.1,2-2.9,5-2.2,7.8c0.7,2.8,2.9,5,5.7,5.7
	C128.7,304.6,131.6,303.7,133.7,301.7z"/>
<path class="st0" d="M170.3,282.3l-40,40c-2.1,2-2.9,5-2.2,7.8c0.7,2.8,2.9,5,5.7,5.7c2.8,0.7,5.8-0.1,7.8-2.2l40-40
	c3-3.1,3-8.1-0.1-11.2S173.5,279.3,170.3,282.3z"/>
</svg>
